<svg width="54" height="38" viewBox="0 0 54 38" fill="none" xmlns="http://www.w3.org/2000/svg">
<g clip-path="url(#clip0_5_11)">
<rect width="54" height="38" rx="2" fill="#3A3B3C"/>
<ellipse cx="15.5" cy="19" rx="13.5" ry="13" fill="#B8B7B1"/>
<circle cx="12" cy="10" r="2" fill="#D9D9D9"/>
<circle cx="10" cy="24" r="2" fill="#D9D9D9"/>
<circle cx="19" cy="17" r="3" fill="#D9D9D9"/>
<path d="M37 5L37.2245 5.69098H37.9511L37.3633 6.11803L37.5878 6.80902L37 6.38197L36.4122 6.80902L36.6367 6.11803L36.0489 5.69098H36.7755L37 5Z" fill="#FAF3B8"/>
<path d="M50 11L50.2245 11.691H50.9511L50.3633 12.118L50.5878 12.809L50 12.382L49.4122 12.809L49.6367 12.118L49.0489 11.691H49.7755L50 11Z" fill="#FAF3B8"/>
<path d="M42 6L42.2245 6.69098H42.9511L42.3633 7.11803L42.5878 7.80902L42 7.38197L41.4122 7.80902L41.6367 7.11803L41.0489 6.69098H41.7755L42 6Z" fill="#FAF3B8"/>
<path d="M45 14L45.2245 14.691H45.9511L45.3633 15.118L45.5878 15.809L45 15.382L44.4122 15.809L44.6367 15.118L44.0489 14.691H44.7755L45 14Z" fill="#FAF3B8"/>
<path d="M35 20L35.2245 20.691H35.9511L35.3633 21.118L35.5878 21.809L35 21.382L34.4122 21.809L34.6367 21.118L34.0489 20.691H34.7755L35 20Z" fill="#FAF3B8"/>
<path d="M43 21L43.2245 21.691H43.9511L43.3633 22.118L43.5878 22.809L43 22.382L42.4122 22.809L42.6367 22.118L42.0489 21.691H42.7755L43 21Z" fill="#FAF3B8"/>
<path d="M40 32L40.2245 32.691H40.9511L40.3633 33.118L40.5878 33.809L40 33.382L39.4122 33.809L39.6367 33.118L39.0489 32.691H39.7755L40 32Z" fill="#FAF3B8"/>
<path d="M31 34L31.2245 34.691H31.9511L31.3633 35.118L31.5878 35.809L31 35.382L30.4122 35.809L30.6367 35.118L30.0489 34.691H30.7755L31 34Z" fill="#FAF3B8"/>
<path d="M12 34L12.2245 34.691H12.9511L12.3633 35.118L12.5878 35.809L12 35.382L11.4122 35.809L11.6367 35.118L11.0489 34.691H11.7755L12 34Z" fill="#FAF3B8"/>
<path d="M28 4L28.2245 4.69098H28.9511L28.3633 5.11803L28.5878 5.80902L28 5.38197L27.4122 5.80902L27.6367 5.11803L27.0489 4.69098H27.7755L28 4Z" fill="#FAF3B8"/>
<path d="M28 4L28.2245 4.69098H28.9511L28.3633 5.11803L28.5878 5.80902L28 5.38197L27.4122 5.80902L27.6367 5.11803L27.0489 4.69098H27.7755L28 4Z" fill="#FAF3B8"/>
<path d="M28 4L28.2245 4.69098H28.9511L28.3633 5.11803L28.5878 5.80902L28 5.38197L27.4122 5.80902L27.6367 5.11803L27.0489 4.69098H27.7755L28 4Z" fill="#FAF3B8"/>
<path d="M38.5 26L38.8368 27.0365H39.9266L39.0449 27.6771L39.3817 28.7135L38.5 28.0729L37.6183 28.7135L37.9551 27.6771L37.0734 27.0365H38.1632L38.5 26Z" fill="#FAF3B8"/>
<path d="M51.5 32L51.8368 33.0365H52.9266L52.0449 33.6771L52.3817 34.7135L51.5 34.0729L50.6183 34.7135L50.9551 33.6771L50.0734 33.0365H51.1632L51.5 32Z" fill="#FAF3B8"/>
<path d="M41.5 2L41.8368 3.03647H42.9266L42.0449 3.67705L42.3817 4.71353L41.5 4.07295L40.6183 4.71353L40.9551 3.67705L40.0734 3.03647H41.1632L41.5 2Z" fill="#FAF3B8"/>
<path d="M49.5 2L49.8368 3.03647H50.9266L50.0449 3.67705L50.3817 4.71353L49.5 4.07295L48.6183 4.71353L48.9551 3.67705L48.0734 3.03647H49.1632L49.5 2Z" fill="#FAF3B8"/>
<path d="M39.5 16L39.8368 17.0365H40.9266L40.0449 17.6771L40.3817 18.7135L39.5 18.0729L38.6183 18.7135L38.9551 17.6771L38.0734 17.0365H39.1632L39.5 16Z" fill="#FAF3B8"/>
<path d="M29.5 7L29.8368 8.03647H30.9266L30.0449 8.67705L30.3817 9.71353L29.5 9.07295L28.6183 9.71353L28.9551 8.67705L28.0734 8.03647H29.1632L29.5 7Z" fill="#FAF3B8"/>
<path d="M1.5 1L1.83677 2.03647H2.92658L2.04491 2.67705L2.38168 3.71353L1.5 3.07295L0.618322 3.71353L0.955093 2.67705L0.0734153 2.03647H1.16323L1.5 1Z" fill="#FAF3B8"/>
<path d="M1.5 24L1.83677 25.0365H2.92658L2.04491 25.6771L2.38168 26.7135L1.5 26.0729L0.618322 26.7135L0.955093 25.6771L0.0734153 25.0365H1.16323L1.5 24Z" fill="#FAF3B8"/>
<path d="M17.5 0L17.8368 1.03647H18.9266L18.0449 1.67705L18.3817 2.71353L17.5 2.07295L16.6183 2.71353L16.9551 1.67705L16.0734 1.03647H17.1632L17.5 0Z" fill="#FAF3B8"/>
<path d="M27 31L27.2245 31.691H27.9511L27.3633 32.118L27.5878 32.809L27 32.382L26.4122 32.809L26.6367 32.118L26.0489 31.691H26.7755L27 31Z" fill="#FAF3B8"/>
<path d="M2 34L2.22451 34.691H2.95106L2.36327 35.118L2.58779 35.809L2 35.382L1.41221 35.809L1.63673 35.118L1.04894 34.691H1.77549L2 34Z" fill="#FAF3B8"/>
<path d="M5 31L5.22451 31.691H5.95106L5.36327 32.118L5.58779 32.809L5 32.382L4.41221 32.809L4.63673 32.118L4.04894 31.691H4.77549L5 31Z" fill="#FAF3B8"/>
<path d="M0 18L0.224514 18.691H0.951056L0.363271 19.118L0.587785 19.809L0 19.382L-0.587785 19.809L-0.363271 19.118L-0.951057 18.691H-0.224514L0 18Z" fill="#FAF3B8"/>
<path d="M46 27L46.2245 27.691H46.9511L46.3633 28.118L46.5878 28.809L46 28.382L45.4122 28.809L45.6367 28.118L45.0489 27.691H45.7755L46 27Z" fill="#FAF3B8"/>
<path d="M7 1L7.22451 1.69098H7.95106L7.36327 2.11803L7.58779 2.80902L7 2.38197L6.41221 2.80902L6.63673 2.11803L6.04894 1.69098H6.77549L7 1Z" fill="#FAF3B8"/>
<path d="M4 6L4.22451 6.69098H4.95106L4.36327 7.11803L4.58779 7.80902L4 7.38197L3.41221 7.80902L3.63673 7.11803L3.04894 6.69098H3.77549L4 6Z" fill="#FAF3B8"/>
<path d="M45 9L45.2245 9.69098H45.9511L45.3633 10.118L45.5878 10.809L45 10.382L44.4122 10.809L44.6367 10.118L44.0489 9.69098H44.7755L45 9Z" fill="#FAF3B8"/>
<path d="M25 2L25.2245 2.69098H25.9511L25.3633 3.11803L25.5878 3.80902L25 3.38197L24.4122 3.80902L24.6367 3.11803L24.0489 2.69098H24.7755L25 2Z" fill="#FAF3B8"/>
<path d="M20 3L20.2245 3.69098H20.9511L20.3633 4.11803L20.5878 4.80902L20 4.38197L19.4122 4.80902L19.6367 4.11803L19.0489 3.69098H19.7755L20 3Z" fill="#FAF3B8"/>
<path d="M37 10L37.2245 10.691H37.9511L37.3633 11.118L37.5878 11.809L37 11.382L36.4122 11.809L36.6367 11.118L36.0489 10.691H36.7755L37 10Z" fill="#FAF3B8"/>
<path d="M31 18L31.2245 18.691H31.9511L31.3633 19.118L31.5878 19.809L31 19.382L30.4122 19.809L30.6367 19.118L30.0489 18.691H30.7755L31 18Z" fill="#FAF3B8"/>
<path d="M30 24L30.2245 24.691H30.9511L30.3633 25.118L30.5878 25.809L30 25.382L29.4122 25.809L29.6367 25.118L29.0489 24.691H29.7755L30 24Z" fill="#FAF3B8"/>
<path d="M48 18L48.2245 18.691H48.9511L48.3633 19.118L48.5878 19.809L48 19.382L47.4122 19.809L47.6367 19.118L47.0489 18.691H47.7755L48 18Z" fill="#FAF3B8"/>
<path d="M32 12L32.2245 12.691H32.9511L32.3633 13.118L32.5878 13.809L32 13.382L31.4122 13.809L31.6367 13.118L31.0489 12.691H31.7755L32 12Z" fill="#FAF3B8"/>
<path d="M32 2L32.2245 2.69098H32.9511L32.3633 3.11803L32.5878 3.80902L32 3.38197L31.4122 3.80902L31.6367 3.11803L31.0489 2.69098H31.7755L32 2Z" fill="#FAF3B8"/>
</g>
<rect x="0.5" y="0.5" width="53" height="37" rx="1.5" stroke="black" stroke-opacity="0.1"/>
<defs>
<clipPath id="clip0_5_11">
<rect width="54" height="38" rx="2" fill="white"/>
</clipPath>
</defs>
</svg>
