<svg width="54" height="38" viewBox="0 0 54 38" fill="none" xmlns="http://www.w3.org/2000/svg">
<rect width="54" height="38" rx="2" fill="#4986B9"/>
<ellipse cx="19.5" cy="19" rx="13.5" ry="13" fill="#E9DA8F"/>
<circle cx="36.5" cy="3.5" r="2.5" fill="white"/>
<circle cx="38.5" cy="2.5" r="2.5" fill="white"/>
<circle cx="41.5" cy="2.5" r="2.5" fill="white"/>
<circle cx="41.5" cy="5.5" r="2.5" fill="white"/>
<circle cx="44.5" cy="3.5" r="2.5" fill="white"/>
<circle cx="38.5" cy="5.5" r="2.5" fill="white"/>
<circle cx="36.5" cy="14.5" r="2.5" fill="white"/>
<circle cx="4.5" cy="35.5" r="2.5" fill="white"/>
<circle cx="2.5" cy="33.5" r="2.5" fill="white"/>
<circle cx="5.5" cy="32.5" r="2.5" fill="white"/>
<circle cx="2.5" cy="30.5" r="2.5" fill="white"/>
<circle cx="5.5" cy="29.5" r="2.5" fill="white"/>
<circle cx="7.5" cy="35.5" r="2.5" fill="white"/>
<circle cx="3.5" cy="2.5" r="2.5" fill="white"/>
<circle cx="6.5" cy="3.5" r="2.5" fill="white"/>
<circle cx="3.5" cy="5.5" r="2.5" fill="white"/>
<circle cx="5.5" cy="6.5" r="2.5" fill="white"/>
<circle cx="6.5" cy="2.5" r="2.5" fill="white"/>
<circle cx="8.5" cy="4.5" r="2.5" fill="white"/>
<circle cx="9.5" cy="2.5" r="2.5" fill="white"/>
<circle cx="38.5" cy="11.5" r="2.5" fill="white"/>
<circle cx="40.5" cy="14.5" r="2.5" fill="white"/>
<circle cx="39.5" cy="15.5" r="2.5" fill="white"/>
<circle cx="41.5" cy="11.5" r="2.5" fill="white"/>
<circle cx="43.5" cy="15.5" r="2.5" fill="white"/>
<circle cx="44.5" cy="12.5" r="2.5" fill="white"/>
<circle cx="46.5" cy="15.5" r="2.5" fill="white"/>
<circle cx="42.5" cy="33.5" r="2.5" fill="white"/>
<circle cx="40.5" cy="31.5" r="2.5" fill="white"/>
<circle cx="49.5" cy="32.5" r="2.5" fill="white"/>
<circle cx="39.5" cy="27.5" r="2.5" fill="white"/>
<circle cx="46.5" cy="33.5" r="2.5" fill="white"/>
<circle cx="47.5" cy="29.5" r="2.5" fill="white"/>
<circle cx="50.5" cy="28.5" r="2.5" fill="white"/>
<circle cx="44.5" cy="31.5" r="2.5" fill="white"/>
<circle cx="45.5" cy="28.5" r="2.5" fill="white"/>
<circle cx="47.5" cy="26.5" r="2.5" fill="white"/>
<circle cx="43.5" cy="25.5" r="2.5" fill="white"/>
<circle cx="43.5" cy="28.5" r="2.5" fill="white"/>
<rect x="0.5" y="0.5" width="53" height="37" rx="1.5" stroke="black" stroke-opacity="0.1"/>
</svg>
